<svg width="25" height="25" viewBox="0 0 25 25" fill="none" xmlns="http://www.w3.org/2000/svg">
<path d="M10.6294 1.67449L11.8681 0.403595C12.3926 -0.134532 13.2407 -0.134532 13.7596 0.403595L24.6066 11.5268C25.1311 12.0649 25.1311 12.9351 24.6066 13.4675L13.7596 24.5964C13.2351 25.1345 12.387 25.1345 11.8681 24.5964L10.6294 23.3255C10.0993 22.7817 10.1105 21.8943 10.6517 21.3619L17.3753 14.7899H1.33914C0.597032 14.7899 0 14.1774 0 13.416V11.584C0 10.8226 0.597032 10.2101 1.33914 10.2101H17.3753L10.6517 3.63808C10.1049 3.10568 10.0937 2.21834 10.6294 1.67449Z" fill="#615E5E"/>
</svg>
