<svg width="23" height="20" viewBox="0 0 23 20" fill="none" xmlns="http://www.w3.org/2000/svg">
<path d="M11.0086 4.87225C7.88535 4.87225 5.36617 7.16166 5.36617 10C5.36617 12.8383 7.88535 15.1277 11.0086 15.1277C14.1318 15.1277 16.651 12.8383 16.651 10C16.651 7.16166 14.1318 4.87225 11.0086 4.87225ZM11.0086 13.3337C8.99026 13.3337 7.34027 11.8387 7.34027 10C7.34027 8.16133 8.98535 6.6663 11.0086 6.6663C13.0318 6.6663 14.6769 8.16133 14.6769 10C14.6769 11.8387 13.0269 13.3337 11.0086 13.3337V13.3337ZM18.1978 4.6625C18.1978 5.32746 17.6085 5.85853 16.8818 5.85853C16.1501 5.85853 15.5657 5.32299 15.5657 4.6625C15.5657 4.00201 16.155 3.46647 16.8818 3.46647C17.6085 3.46647 18.1978 4.00201 18.1978 4.6625ZM21.9349 5.87638C21.8514 4.27424 21.4487 2.85507 20.1572 1.68582C18.8706 0.516568 17.309 0.150619 15.546 0.070289C13.7291 -0.0234297 8.28312 -0.0234297 6.46616 0.070289C4.70813 0.146156 3.14653 0.512105 1.85502 1.68136C0.563503 2.85061 0.165736 4.26978 0.0773435 5.87192C-0.0257812 7.52315 -0.0257812 12.4724 0.0773435 14.1236C0.160825 15.7258 0.563503 17.1449 1.85502 18.3142C3.14653 19.4834 4.70322 19.8494 6.46616 19.9297C8.28312 20.0234 13.7291 20.0234 15.546 19.9297C17.309 19.8538 18.8706 19.4879 20.1572 18.3142C21.4438 17.1449 21.8465 15.7258 21.9349 14.1236C22.038 12.4724 22.038 7.52761 21.9349 5.87638V5.87638ZM19.5876 15.8953C19.2045 16.7701 18.463 17.4439 17.4956 17.7965C16.0469 18.3186 12.6094 18.1981 11.0086 18.1981C9.40767 18.1981 5.96527 18.3142 4.52153 17.7965C3.55903 17.4484 2.81751 16.7745 2.42957 15.8953C1.85502 14.5788 1.98761 11.4549 1.98761 10C1.98761 8.54513 1.85993 5.41671 2.42957 4.10465C2.8126 3.22995 3.55412 2.55606 4.52153 2.2035C5.97018 1.68136 9.40767 1.80185 11.0086 1.80185C12.6094 1.80185 16.0518 1.68582 17.4956 2.2035C18.4581 2.5516 19.1996 3.22548 19.5876 4.10465C20.1621 5.42118 20.0295 8.54513 20.0295 10C20.0295 11.4549 20.1621 14.5833 19.5876 15.8953Z" fill="white"/>
</svg>
